<?xml version="1.0" encoding="utf-8"?>
<!-- Generator: Adobe Illustrator 26.3.1, SVG Export Plug-In . SVG Version: 6.00 Build 0)  -->
<svg version="1.1" xmlns="http://www.w3.org/2000/svg" xmlns:xlink="http://www.w3.org/1999/xlink" x="0px" y="0px"
	 viewBox="0 0 100.8 100.8" style="enable-background:new 0 0 100.8 100.8;" xml:space="preserve">
<style type="text/css">
	.st0{display:none;}
	.st1{display:inline;}
	.st2{fill:url(#SVGID_1_);}
	.st3{fill:#FFFFFF;}
</style>
<g id="Layer_3" class="st0">
	<rect class="st1" width="100.8" height="100.8"/>
</g>
<g id="Layer_2_copy" class="st0">
	<g id="LogosKryptoSwiss_00000078725847092287115330000015593474207058628022_" class="st1">
		<g id="Coin_Blanc_FondCouleur_00000151533226690534696040000001385029607110162049_">
			
				<linearGradient id="SVGID_1_" gradientUnits="userSpaceOnUse" x1="73.3878" y1="16.7486" x2="24.6378" y2="90.6686" gradientTransform="matrix(1 0 0 -1 0 102)">
				<stop  offset="0.13" style="stop-color:#131A4F"/>
				<stop  offset="0.55" style="stop-color:#203B9C"/>
				<stop  offset="0.86" style="stop-color:#2241A9"/>
				<stop  offset="0.98" style="stop-color:#225CD0"/>
			</linearGradient>
			<circle class="st2" cx="50.4" cy="50.4" r="50.4"/>
			<polygon class="st3" points="16.5,64.3 33.5,37.2 41.6,50.1 59.2,22 85.7,64.4 48.2,64.4 57.1,49.7 57.1,31.3 36.4,64.4 27,64.4 
				31.6,57.1 31.6,47 21,64 			"/>
		</g>
	</g>
</g>
<g id="Layer_2_00000106144468185111669320000008768180498376217995_">
	<g id="LogosKryptoSwiss">
		<g id="Coin_Blanc_FondCouleur">
			<g>
				<path class="st3" d="M50.4,5c25,0,45.4,20.4,45.4,45.4S75.4,95.8,50.4,95.8S5,75.4,5,50.4S25.4,5,50.4,5 M50.4,0
					C22.6,0,0,22.6,0,50.4s22.6,50.4,50.4,50.4s50.4-22.6,50.4-50.4S78.3,0,50.4,0L50.4,0z"/>
			</g>
			<polygon class="st3" points="16.5,64.3 33.5,37.2 41.6,50.1 59.2,22 85.7,64.4 48.2,64.4 57.1,49.7 57.1,31.3 36.4,64.4 27,64.4 
				31.6,57.1 31.6,47 21,64 			"/>
		</g>
	</g>
</g>
</svg>
